{
    "asset" : {
        "generator" : "Khronos glTF Blender I/O v1.1.46",
        "version" : "2.0"
    },
    "scene" : 0,
    "scenes" : [
        {
            "name" : "Scene",
            "nodes" : [
                0,
                1,
                2,
                3,
                4,
                5
            ]
        }
    ],
    "nodes" : [
        {
            "mesh" : 0,
            "name" : "Teppich",
            "scale" : [
                210.739990234375,
                283.55999755859375,
                1
            ],
            "translation" : [
                -7.258604526519775,
                -0.8216933012008667,
                0.03725796937942505
            ]
        },
        {
            "mesh" : 1,
            "name" : "3D-Modell Menschen",
            "translation" : [
                7.396403789520264,
                -3.105611801147461,
                1.9588162899017334
            ]
        },
        {
            "mesh" : 2,
            "name" : "3D-Modell Menschen.001",
            "rotation" : [
                0,
                0,
                -0.4186597466468811,
                0.908143162727356
            ],
            "translation" : [
                2.0957231521606445,
                18.74119758605957,
                0.04634830355644226
            ]
        },
        {
            "mesh" : 3,
            "name" : "3D-Modell Menschen.002",
            "rotation" : [
                0,
                0,
                -0.7609723806381226,
                0.6487842798233032
            ],
            "scale" : [
                0.9499999284744263,
                0.9499999284744263,
                0.9499999284744263
            ],
            "translation" : [
                18.533008575439453,
                25.432464599609375,
                0
            ]
        },
        {
            "mesh" : 4,
            "name" : "3D-Modell Trib\u00fcne"
        },
        {
            "mesh" : 5,
            "name" : "Plane.002",
            "translation" : [
                0,
                0,
                0.08851221203804016
            ]
        }
    ],
    "materials" : [
        {
            "doubleSided" : true,
            "name" : "Teppich",
            "pbrMetallicRoughness" : {}
        },
        {
            "doubleSided" : true,
            "emissiveFactor" : [
                0,
                0,
                0
            ],
            "name" : "GDLM25_LWPG0006D",
            "pbrMetallicRoughness" : {
                "baseColorFactor" : [
                    0.800000011920929,
                    0.800000011920929,
                    0.800000011920929,
                    1
                ],
                "metallicFactor" : 0,
                "roughnessFactor" : 0.5
            }
        },
        {
            "doubleSided" : true,
            "emissiveFactor" : [
                0,
                0,
                0
            ],
            "name" : "GDLM27_LWPG0010D",
            "pbrMetallicRoughness" : {
                "baseColorFactor" : [
                    0.800000011920929,
                    0.800000011920929,
                    0.800000011920929,
                    1
                ],
                "metallicFactor" : 0,
                "roughnessFactor" : 0.5
            }
        },
        {
            "doubleSided" : true,
            "emissiveFactor" : [
                0,
                0,
                0
            ],
            "name" : "GDLM25_LWPG0006D.001",
            "pbrMetallicRoughness" : {
                "baseColorFactor" : [
                    0.800000011920929,
                    0.800000011920929,
                    0.800000011920929,
                    1
                ],
                "metallicFactor" : 0,
                "roughnessFactor" : 0.5
            }
        },
        {
            "doubleSided" : true,
            "emissiveFactor" : [
                0,
                0,
                0
            ],
            "name" : "GDLM24_LWPG0048D.002",
            "pbrMetallicRoughness" : {
                "baseColorFactor" : [
                    0.800000011920929,
                    0.800000011920929,
                    0.800000011920929,
                    1
                ],
                "metallicFactor" : 0,
                "roughnessFactor" : 0.5
            }
        },
        {
            "doubleSided" : true,
            "emissiveFactor" : [
                0,
                0,
                0
            ],
            "name" : "Material",
            "pbrMetallicRoughness" : {
                "baseColorFactor" : [
                    0.02197943441569805,
                    0.02197943441569805,
                    0.02197943441569805,
                    1
                ],
                "metallicFactor" : 0,
                "roughnessFactor" : 0.5
            }
        },
        {
            "doubleSided" : true,
            "emissiveFactor" : [
                0,
                0,
                0
            ],
            "name" : "METALL_ALUMINIUM__MATT",
            "pbrMetallicRoughness" : {
                "baseColorFactor" : [
                    0.800000011920929,
                    0.800000011920929,
                    0.800000011920929,
                    1
                ],
                "metallicFactor" : 0,
                "roughnessFactor" : 0.5
            }
        },
        {
            "doubleSided" : true,
            "emissiveFactor" : [
                0,
                0,
                0
            ],
            "name" : "Material.003",
            "pbrMetallicRoughness" : {
                "baseColorFactor" : [
                    0.800000011920929,
                    0.800000011920929,
                    0.800000011920929,
                    1
                ],
                "metallicFactor" : 0,
                "roughnessFactor" : 0.5
            }
        }
    ],
    "meshes" : [
        {
            "name" : "Plane.002",
            "primitives" : [
                {
                    "attributes" : {
                        "POSITION" : 0,
                        "NORMAL" : 1,
                        "TANGENT" : 2,
                        "TEXCOORD_0" : 3
                    },
                    "indices" : 4,
                    "material" : 0
                }
            ]
        },
        {
            "name" : "3D-Modell Menschen",
            "primitives" : [
                {
                    "attributes" : {
                        "POSITION" : 5,
                        "NORMAL" : 6,
                        "TANGENT" : 7,
                        "TEXCOORD_0" : 8
                    },
                    "indices" : 9,
                    "material" : 1
                },
                {
                    "attributes" : {
                        "POSITION" : 10,
                        "NORMAL" : 11,
                        "TANGENT" : 12,
                        "TEXCOORD_0" : 13
                    },
                    "indices" : 14,
                    "material" : 2
                }
            ]
        },
        {
            "name" : "3D-Modell Menschen.001",
            "primitives" : [
                {
                    "attributes" : {
                        "POSITION" : 15,
                        "NORMAL" : 16,
                        "TANGENT" : 17,
                        "TEXCOORD_0" : 18
                    },
                    "indices" : 9,
                    "material" : 3
                }
            ]
        },
        {
            "name" : "3D-Modell Menschen.002",
            "primitives" : [
                {
                    "attributes" : {
                        "POSITION" : 19,
                        "NORMAL" : 20,
                        "TANGENT" : 21,
                        "TEXCOORD_0" : 22
                    },
                    "indices" : 23,
                    "material" : 4
                }
            ]
        },
        {
            "name" : "3D-Modell Trib\u00fcne",
            "primitives" : [
                {
                    "attributes" : {
                        "POSITION" : 24,
                        "NORMAL" : 25,
                        "TANGENT" : 26,
                        "TEXCOORD_0" : 27
                    },
                    "indices" : 28,
                    "material" : 5
                },
                {
                    "attributes" : {
                        "POSITION" : 29,
                        "NORMAL" : 30,
                        "TANGENT" : 31,
                        "TEXCOORD_0" : 32
                    },
                    "indices" : 33,
                    "material" : 6
                }
            ]
        },
        {
            "name" : "Plane.004",
            "primitives" : [
                {
                    "attributes" : {
                        "POSITION" : 34,
                        "NORMAL" : 35,
                        "TANGENT" : 36,
                        "TEXCOORD_0" : 37
                    },
                    "indices" : 38,
                    "material" : 7
                }
            ]
        }
    ],
    "accessors" : [
        {
            "bufferView" : 0,
            "componentType" : 5126,
            "count" : 4,
            "max" : [
                1,
                1,
                0
            ],
            "min" : [
                -1,
                -1,
                0
            ],
            "type" : "VEC3"
        },
        {
            "bufferView" : 1,
            "componentType" : 5126,
            "count" : 4,
            "type" : "VEC3"
        },
        {
            "bufferView" : 2,
            "componentType" : 5126,
            "count" : 4,
            "type" : "VEC4"
        },
        {
            "bufferView" : 3,
            "componentType" : 5126,
            "count" : 4,
            "type" : "VEC2"
        },
        {
            "bufferView" : 4,
            "componentType" : 5123,
            "count" : 6,
            "type" : "SCALAR"
        },
        {
            "bufferView" : 5,
            "componentType" : 5126,
            "count" : 3910,
            "max" : [
                20.140300750732422,
                7.860509872436523,
                1.669160008430481
            ],
            "min" : [
                19.67970085144043,
                7.2737298011779785,
                0
            ],
            "type" : "VEC3"
        },
        {
            "bufferView" : 6,
            "componentType" : 5126,
            "count" : 3910,
            "type" : "VEC3"
        },
        {
            "bufferView" : 7,
            "componentType" : 5126,
            "count" : 3910,
            "type" : "VEC4"
        },
        {
            "bufferView" : 8,
            "componentType" : 5126,
            "count" : 3910,
            "type" : "VEC2"
        },
        {
            "bufferView" : 9,
            "componentType" : 5123,
            "count" : 8730,
            "type" : "SCALAR"
        },
        {
            "bufferView" : 10,
            "componentType" : 5126,
            "count" : 3724,
            "max" : [
                20.71540069580078,
                4.607309818267822,
                1.7690000534057617
            ],
            "min" : [
                20.143400192260742,
                4.131319999694824,
                0.018331900238990784
            ],
            "type" : "VEC3"
        },
        {
            "bufferView" : 11,
            "componentType" : 5126,
            "count" : 3724,
            "type" : "VEC3"
        },
        {
            "bufferView" : 12,
            "componentType" : 5126,
            "count" : 3724,
            "type" : "VEC4"
        },
        {
            "bufferView" : 13,
            "componentType" : 5126,
            "count" : 3724,
            "type" : "VEC2"
        },
        {
            "bufferView" : 14,
            "componentType" : 5123,
            "count" : 8250,
            "type" : "SCALAR"
        },
        {
            "bufferView" : 15,
            "componentType" : 5126,
            "count" : 3910,
            "max" : [
                20.140300750732422,
                7.860509872436523,
                1.669160008430481
            ],
            "min" : [
                19.67970085144043,
                7.2737298011779785,
                0
            ],
            "type" : "VEC3"
        },
        {
            "bufferView" : 16,
            "componentType" : 5126,
            "count" : 3910,
            "type" : "VEC3"
        },
        {
            "bufferView" : 17,
            "componentType" : 5126,
            "count" : 3910,
            "type" : "VEC4"
        },
        {
            "bufferView" : 18,
            "componentType" : 5126,
            "count" : 3910,
            "type" : "VEC2"
        },
        {
            "bufferView" : 19,
            "componentType" : 5126,
            "count" : 2577,
            "max" : [
                25.202699661254883,
                3.471280097961426,
                1.8794100284576416
            ],
            "min" : [
                24.790300369262695,
                2.760859966278076,
                0
            ],
            "type" : "VEC3"
        },
        {
            "bufferView" : 20,
            "componentType" : 5126,
            "count" : 2577,
            "type" : "VEC3"
        },
        {
            "bufferView" : 21,
            "componentType" : 5126,
            "count" : 2577,
            "type" : "VEC4"
        },
        {
            "bufferView" : 22,
            "componentType" : 5126,
            "count" : 2577,
            "type" : "VEC2"
        },
        {
            "bufferView" : 23,
            "componentType" : 5123,
            "count" : 5799,
            "type" : "SCALAR"
        },
        {
            "bufferView" : 24,
            "componentType" : 5126,
            "count" : 24,
            "max" : [
                28.11199951171875,
                10.49839973449707,
                1.9800000190734863
            ],
            "min" : [
                22.110000610351562,
                0.49838998913764954,
                0.33000001311302185
            ],
            "type" : "VEC3"
        },
        {
            "bufferView" : 25,
            "componentType" : 5126,
            "count" : 24,
            "type" : "VEC3"
        },
        {
            "bufferView" : 26,
            "componentType" : 5126,
            "count" : 24,
            "type" : "VEC4"
        },
        {
            "bufferView" : 27,
            "componentType" : 5126,
            "count" : 24,
            "type" : "VEC2"
        },
        {
            "bufferView" : 28,
            "componentType" : 5123,
            "count" : 36,
            "type" : "SCALAR"
        },
        {
            "bufferView" : 29,
            "componentType" : 5126,
            "count" : 120,
            "max" : [
                28.11199951171875,
                10.49839973449707,
                1.9800000190734863
            ],
            "min" : [
                22.110000610351562,
                0.49838998913764954,
                0.17000000178813934
            ],
            "type" : "VEC3"
        },
        {
            "bufferView" : 30,
            "componentType" : 5126,
            "count" : 120,
            "type" : "VEC3"
        },
        {
            "bufferView" : 31,
            "componentType" : 5126,
            "count" : 120,
            "type" : "VEC4"
        },
        {
            "bufferView" : 32,
            "componentType" : 5126,
            "count" : 120,
            "type" : "VEC2"
        },
        {
            "bufferView" : 33,
            "componentType" : 5123,
            "count" : 180,
            "type" : "SCALAR"
        },
        {
            "bufferView" : 34,
            "componentType" : 5126,
            "count" : 58,
            "max" : [
                19.256479263305664,
                10.958085060119629,
                3.638374090194702
            ],
            "min" : [
                8.419644355773926,
                0.42525869607925415,
                0.05837392807006836
            ],
            "type" : "VEC3"
        },
        {
            "bufferView" : 35,
            "componentType" : 5126,
            "count" : 58,
            "type" : "VEC3"
        },
        {
            "bufferView" : 36,
            "componentType" : 5126,
            "count" : 58,
            "type" : "VEC4"
        },
        {
            "bufferView" : 37,
            "componentType" : 5126,
            "count" : 58,
            "type" : "VEC2"
        },
        {
            "bufferView" : 38,
            "componentType" : 5123,
            "count" : 168,
            "type" : "SCALAR"
        }
    ],
    "bufferViews" : [
        {
            "buffer" : 0,
            "byteLength" : 48,
            "byteOffset" : 0
        },
        {
            "buffer" : 0,
            "byteLength" : 48,
            "byteOffset" : 48
        },
        {
            "buffer" : 0,
            "byteLength" : 64,
            "byteOffset" : 96
        },
        {
            "buffer" : 0,
            "byteLength" : 32,
            "byteOffset" : 160
        },
        {
            "buffer" : 0,
            "byteLength" : 12,
            "byteOffset" : 192
        },
        {
            "buffer" : 0,
            "byteLength" : 46920,
            "byteOffset" : 204
        },
        {
            "buffer" : 0,
            "byteLength" : 46920,
            "byteOffset" : 47124
        },
        {
            "buffer" : 0,
            "byteLength" : 62560,
            "byteOffset" : 94044
        },
        {
            "buffer" : 0,
            "byteLength" : 31280,
            "byteOffset" : 156604
        },
        {
            "buffer" : 0,
            "byteLength" : 17460,
            "byteOffset" : 187884
        },
        {
            "buffer" : 0,
            "byteLength" : 44688,
            "byteOffset" : 205344
        },
        {
            "buffer" : 0,
            "byteLength" : 44688,
            "byteOffset" : 250032
        },
        {
            "buffer" : 0,
            "byteLength" : 59584,
            "byteOffset" : 294720
        },
        {
            "buffer" : 0,
            "byteLength" : 29792,
            "byteOffset" : 354304
        },
        {
            "buffer" : 0,
            "byteLength" : 16500,
            "byteOffset" : 384096
        },
        {
            "buffer" : 0,
            "byteLength" : 46920,
            "byteOffset" : 400596
        },
        {
            "buffer" : 0,
            "byteLength" : 46920,
            "byteOffset" : 447516
        },
        {
            "buffer" : 0,
            "byteLength" : 62560,
            "byteOffset" : 494436
        },
        {
            "buffer" : 0,
            "byteLength" : 31280,
            "byteOffset" : 556996
        },
        {
            "buffer" : 0,
            "byteLength" : 30924,
            "byteOffset" : 588276
        },
        {
            "buffer" : 0,
            "byteLength" : 30924,
            "byteOffset" : 619200
        },
        {
            "buffer" : 0,
            "byteLength" : 41232,
            "byteOffset" : 650124
        },
        {
            "buffer" : 0,
            "byteLength" : 20616,
            "byteOffset" : 691356
        },
        {
            "buffer" : 0,
            "byteLength" : 11598,
            "byteOffset" : 711972
        },
        {
            "buffer" : 0,
            "byteLength" : 288,
            "byteOffset" : 723572
        },
        {
            "buffer" : 0,
            "byteLength" : 288,
            "byteOffset" : 723860
        },
        {
            "buffer" : 0,
            "byteLength" : 384,
            "byteOffset" : 724148
        },
        {
            "buffer" : 0,
            "byteLength" : 192,
            "byteOffset" : 724532
        },
        {
            "buffer" : 0,
            "byteLength" : 72,
            "byteOffset" : 724724
        },
        {
            "buffer" : 0,
            "byteLength" : 1440,
            "byteOffset" : 724796
        },
        {
            "buffer" : 0,
            "byteLength" : 1440,
            "byteOffset" : 726236
        },
        {
            "buffer" : 0,
            "byteLength" : 1920,
            "byteOffset" : 727676
        },
        {
            "buffer" : 0,
            "byteLength" : 960,
            "byteOffset" : 729596
        },
        {
            "buffer" : 0,
            "byteLength" : 360,
            "byteOffset" : 730556
        },
        {
            "buffer" : 0,
            "byteLength" : 696,
            "byteOffset" : 730916
        },
        {
            "buffer" : 0,
            "byteLength" : 696,
            "byteOffset" : 731612
        },
        {
            "buffer" : 0,
            "byteLength" : 928,
            "byteOffset" : 732308
        },
        {
            "buffer" : 0,
            "byteLength" : 464,
            "byteOffset" : 733236
        },
        {
            "buffer" : 0,
            "byteLength" : 336,
            "byteOffset" : 733700
        }
    ],
    "buffers" : [
        {
            "byteLength" : 734036,
            "uri" : "data:application/octet-stream;base64,"
        }
    ]
}
